<?xml version="1.0" encoding="utf-8"?>
<!-- Generator: Adobe Illustrator 16.2.1, SVG Export Plug-In . SVG Version: 6.00 Build 0)  -->
<!DOCTYPE svg PUBLIC "-//W3C//DTD SVG 1.1//EN" "http://www.w3.org/Graphics/SVG/1.1/DTD/svg11.dtd">
<svg version="1.1" id="Layer_1" xmlns="http://www.w3.org/2000/svg" xmlns:xlink="http://www.w3.org/1999/xlink" x="0px" y="0px"
	 width="32px" height="32px" viewBox="0 0 32 32" enable-background="new 0 0 32 32" xml:space="preserve">
<g opacity="0.1">
	<path d="M18.125,1c0-0.552-0.448-1-1-1h-2c-0.552,0-1,0.448-1,1v5c0,0.552,0.448,1,1,1h2c0.552,0,1-0.448,1-1V1z"/>
</g>
<g opacity="0.34">
	<path d="M18.125,26c0-0.553-0.448-1-1-1h-2c-0.552,0-1,0.447-1,1v5c0,0.553,0.448,1,1,1h2c0.552,0,1-0.447,1-1V26z"/>
</g>
<g opacity="0.22">
	<path d="M32.125,15c0-0.552-0.447-1-1-1h-5c-0.553,0-1,0.448-1,1v2c0,0.553,0.447,1,1,1h5c0.553,0,1-0.447,1-1V15z"/>
</g>
<g opacity="0.46">
	<path d="M7.125,15c0-0.552-0.448-1-1-1h-5c-0.552,0-1,0.448-1,1v2c0,0.553,0.448,1,1,1h5c0.552,0,1-0.447,1-1V15z"/>
</g>
<g opacity="0.54">
	<path d="M9.16,8.403c0.275,0.477,0.89,0.641,1.366,0.366l1.731-1c0.476-0.275,0.641-0.89,0.366-1.366l-2.5-4.33
		c-0.275-0.477-0.89-0.641-1.366-0.366l-1.731,1C6.55,2.982,6.385,3.597,6.66,4.073L9.16,8.403z"/>
</g>
<g opacity="0.3">
	<path d="M21.66,30.054c0.275,0.477,0.89,0.642,1.366,0.366l1.73-1c0.477-0.275,0.642-0.89,0.366-1.366l-2.5-4.33
		c-0.275-0.477-0.89-0.642-1.366-0.366l-1.73,1c-0.477,0.275-0.642,0.89-0.366,1.366L21.66,30.054z"/>
</g>
<g opacity="0.18">
	<path d="M29.99,10.232c0.477-0.275,0.642-0.89,0.366-1.366l-1-1.731c-0.275-0.477-0.89-0.641-1.366-0.366l-4.329,2.5
		c-0.477,0.275-0.642,0.89-0.366,1.366l1,1.731c0.275,0.477,0.89,0.641,1.366,0.366L29.99,10.232z"/>
</g>
<g opacity="0.42">
	<path d="M8.339,22.732c0.477-0.275,0.641-0.89,0.366-1.366l-1-1.731c-0.275-0.477-0.89-0.642-1.366-0.366l-4.329,2.5
		c-0.477,0.275-0.641,0.89-0.366,1.366l1,1.731c0.275,0.477,0.89,0.642,1.366,0.366L8.339,22.732z"/>
</g>
<g opacity="0.5">
	<path d="M6.246,12.85c0.477,0.275,1.091,0.11,1.366-0.366l0.999-1.73c0.275-0.477,0.11-1.091-0.366-1.366l-4.33-2.501
		c-0.477-0.275-1.091-0.11-1.366,0.366L1.55,8.983C1.275,9.46,1.44,10.075,1.917,10.35L6.246,12.85z"/>
</g>
<g opacity="0.26">
	<path d="M27.896,25.35c0.477,0.275,1.091,0.11,1.366-0.366l0.999-1.731c0.275-0.477,0.11-1.091-0.366-1.366l-4.329-2.5
		c-0.477-0.275-1.091-0.11-1.366,0.366l-1,1.731c-0.275,0.477-0.11,1.091,0.366,1.366L27.896,25.35z"/>
</g>
<g opacity="0.14">
	<path d="M25.201,4.019c0.275-0.477,0.11-1.091-0.366-1.366l-1.732-1c-0.477-0.275-1.091-0.11-1.366,0.366l-2.5,4.33
		c-0.275,0.477-0.11,1.091,0.366,1.366l1.732,1c0.477,0.275,1.091,0.11,1.366-0.366L25.201,4.019z"/>
</g>
<g opacity="0.38">
	<path d="M12.699,25.669c0.275-0.477,0.11-1.091-0.366-1.366l-1.73-0.999c-0.477-0.275-1.091-0.11-1.366,0.366l-2.5,4.329
		c-0.275,0.477-0.11,1.091,0.366,1.366l1.731,1c0.477,0.275,1.091,0.11,1.366-0.366L12.699,25.669z"/>
</g>
</svg>
